name processed_emg_signals
nRows=38
nColumns=7
 
endheader
time	LGLTMED	LRF	LADDLONG	LBF	LTA	LGM
11.01	0.0866623666505895	0.0938723048662982	0.0308929730160915	0.193874959078317	0.079015423821718	0.2897047440535127
11.02	0.0620327594718894	0.1033189542045672	0.0341851730683124	0.1764831334266001	0.0637372409392471	0.3031968560038194
11.03	0.0375514658002714	0.1128442784958115	0.0375324438776237	0.1591977477705054	0.0484228456286674	0.31661778917062
11.04	0.0132334228031603	0.122443617107113	0.0409335664557506	0.1420279568696124	0.0330802921230882	0.3299574329733226
11.049999999999999	0.0109066314141005	0.1321122340504036	0.0443872664007752	0.1249827339956466	0.0177176663475904	0.343205729593856
11.059999999999999	0.034854178982462	0.1418453239763547	0.047892215065509	0.1080708584622658	0.0023430764713011	0.3563526899673069
11.069999999999999	0.0585949430945268	0.1516380181797675	0.0514470307890803	0.0913009035686156	0.0130353564791044	0.3693884098414947
11.079999999999998	0.0821149084377401	0.1614853905899599	0.0550502801873306	0.0746812249837991	0.0284095079200221	0.3823030858708524
11.089999999999998	0.1054003411927188	0.1713824637238266	0.0587004794984179	0.0582199495978436	0.0437712589035128	0.3950870317095164
11.099999999999998	0.1284378085547204	0.1813242145831902	0.0623960959809121	0.0419249648635571	0.0591125051820738	0.4077306940677823
11.109999999999998	0.1512141977369059	0.1913055804815686	0.0661355493620891	0.0258039086525295	0.0744251661281208	0.420224668695158
11.119999999999997	0.1737167344146511	0.201321464788539	0.0699172133344935	0.0098641596476717	0.0897011934937605	0.4325597162521259
11.129999999999997	0.1959330005708282	0.2113667425817287	0.0737394170989557	0.0058871717062057	0.1049325799992263	0.4447267780320671
11.139999999999997	0.2178509517030366	0.2214362661976432	0.0776004469522426	0.021443251673232	0.1201113677412741	0.456716991493828
11.149999999999997	0.2394589333552262	0.2315248706729594	0.0814985479176832	0.0367975310993252	0.1352296564147989	0.468521705564741
11.159999999999997	0.2607456969376749	0.241627379067869	0.0854319254172631	0.0519437526690109	0.1502796113422707	0.4801324956728652
11.169999999999996	0.2817004148008767	0.2517386076629626	0.0893987469839135	0.0668759575292919	0.165253471306574	0.4915411784661703
11.179999999999996	0.3023126945302617	0.2618533710208151	0.0933971440129119	0.0815884912652581	0.1801435561834343	0.5027398261753713
11.189999999999996	0.3225725924300667	0.2719664869034023	0.0974252135513706	0.0960760092140928	0.19494227437047	0.513720780576683
11.199999999999996	0.3424706261660054	0.282072781036756	0.10148102012468	0.1103334811068312	0.2096421300106607	0.5244766665109125
11.209999999999996	0.3619977865372411	0.2921670917150076	0.1055625975987874	0.1243561950303237	0.2242357300085724	0.5350004049163555
11.219999999999995	0.3811455483491515	0.302244274237126	0.1096679510769391	0.1381397607047088	0.238715790838122	0.5452852253345164
11.229999999999995	0.3999058803593977	0.3122992051710652	0.1137950588294935	0.1516801120737197	0.253075145140707	0.5553246778495106
11.239999999999995	0.4182712542712885	0.3223267864414069	0.1179418742555104	0.1649735092068984	0.2673067481125688	0.565112644423889
11.249999999999995	0.4362346527496712	0.3323219492379268	0.1221063278747915	0.1780165395145205	0.2814036836804042	0.5746433495948811
11.259999999999994	0.4537895764358594	0.3422796577438005	0.1262863293493855	0.1908061182780459	0.2953591704649117	0.5839113704962798
11.269999999999994	0.4709300499398796	0.3521949126840932	0.1304797695333916	0.2033394885009676	0.3091665675334122	0.5929116461728741
11.279999999999994	0.4876506267912187	0.3620627546983471	0.1346845225500955	0.2156142200868893	0.322819379944722	0.601639486157144
11.289999999999994	0.5039463933335829	0.3718782675454299	0.1388984478951845	0.2276282083535349	0.336311264091821	0.6100905782811336
11.299999999999994	0.5198129715534646	0.3816365811531181	0.1431193925649078	0.2393796718933425	0.349636032850177	0.6182609956990701
11.309999999999993	0.5352465208355326	0.3913328745280774	0.1473451932080236	0.2508671497934108	0.362787660541373	0.6261472030973237
11.319999999999993	0.5502437386392863	0.4009623785435481	0.1515736783005624	0.2620894982297621	0.3757602877228711	0.6337460620685266
11.329999999999993	0.5648018600923391	0.4105203786225787	0.1558026703428696	0.2730458864530402	0.388548225815387	0.641054835626225
11.339999999999993	0.5789186564975102	0.420002217334596	0.1600299880784769	0.2837357921840143	0.4011459615793987	0.6480711918370878
11.349999999999993	0.5925924327552903	0.4294032969226246	0.164253448734709	0.2941589964386076	0.4135481614519357	0.6547932065501431
11.359999999999992	0.6058220237099806	0.4387190817780083	0.1684708702847272	0.3043155778037122	0.4257496757540845	0.6612193652073411
11.369999999999992	0.6186067894354097	0.4479451008789294	0.1726800737308061	0.3142059061870278	0.4377455427787797	0.6673485637258946
11.379999999999992	0.6309466094839398	0.4570769502087404	0.1768788854084649	0.3238306360660226	0.4495309927674402	0.6731801084486817
